<svg width="201" height="170" viewBox="0 0 201 170" fill="none" xmlns="http://www.w3.org/2000/svg">
<path d="M124.036 57.1722H129.697C131.922 57.1722 133.741 55.3524 133.741 53.1281C133.741 50.9039 131.922 49.0841 129.697 49.0841H124.036C121.812 49.0841 119.992 50.9039 119.992 53.1281C119.992 55.3524 121.812 57.1722 124.036 57.1722Z" fill="#DFBB17"/>
<path d="M199.254 156.048L194.199 143.714C192.582 140.074 188.942 137.648 184.898 137.648H180.45V57.1722H189.144C192.986 57.1722 196.221 54.5436 197.03 50.904C197.839 47.2643 196.019 43.4225 192.582 41.8049L108.466 1.97145C103.209 -0.657151 96.9409 -0.657151 91.2793 1.97145L6.7595 41.8049C3.32209 43.4225 1.50228 47.0621 2.31109 50.904C3.11989 54.7458 6.35509 57.3744 10.1969 57.3744H18.6893V137.85H15.0497C11.0057 137.85 7.3661 140.277 5.74849 143.916L0.693483 156.048C-0.51972 159.283 -0.115319 162.721 1.70448 165.552C3.52429 168.382 6.75949 170 9.9947 170H189.953C193.188 170 196.423 168.382 198.243 165.552C200.265 162.923 200.67 159.283 199.254 156.048ZM10.3991 49.0841L94.7167 9.25067C98.1541 7.63306 101.794 7.63306 105.029 9.25067L189.346 49.0841H176.406C174.181 49.0841 172.362 50.904 172.362 53.1282C172.362 53.5326 172.362 53.7348 172.564 53.937C172.564 54.1392 172.362 54.5436 172.362 54.7458V137.648H156.186V81.4362C156.186 72.5394 148.906 65.2602 140.01 65.2602C131.113 65.2602 123.834 72.5394 123.834 81.4362V137.85H115.746V81.4362C115.746 72.5394 108.466 65.2602 99.5695 65.2602C90.6727 65.2602 83.3935 72.5394 83.3935 81.4362V137.85H75.3054V81.4362C75.3054 72.5394 68.0262 65.2602 59.1294 65.2602C50.2326 65.2602 42.9534 72.5394 42.9534 81.4362V137.85H26.7773V57.1722H105.838C108.062 57.1722 109.882 55.3524 109.882 53.1282C109.882 50.904 108.062 49.0841 105.838 49.0841H10.3991ZM148.098 81.4362V137.85H131.922V81.4362C131.922 76.9878 135.561 73.3482 140.01 73.3482C144.458 73.3482 148.098 76.9878 148.098 81.4362ZM107.658 81.4362V137.85H91.4815V81.4362C91.4815 76.9878 95.1211 73.3482 99.5695 73.3482C104.018 73.3482 107.658 76.9878 107.658 81.4362ZM67.2174 81.4362V137.85H51.0414V81.4362C51.0414 76.9878 54.681 73.3482 59.1294 73.3482C63.5778 73.3482 67.2174 76.9878 67.2174 81.4362ZM191.571 161.103C191.368 161.305 190.762 162.114 189.953 162.114H9.9947C8.9837 162.114 8.5793 161.508 8.3771 161.103C8.1749 160.901 7.7705 160.092 8.1749 159.081L13.2299 147.151C13.6343 146.343 14.4431 145.938 15.2519 145.938H185.1C185.909 145.938 186.718 146.343 187.122 147.151L192.177 159.283C192.177 160.092 191.773 160.901 191.571 161.103Z" fill="#DFBB17"/>
</svg>
