<svg width="33" height="33" viewBox="0 0 33 33" fill="none" xmlns="http://www.w3.org/2000/svg">
<path fill-rule="evenodd" clip-rule="evenodd" d="M3.82522 16.7055H2.30559C1.34196 16.7055 0.482055 16.1017 0.144988 15.191C-0.190626 14.2817 0.0686474 13.2546 0.796039 12.6188L14.2363 0.853281C15.5355 -0.284427 17.4642 -0.284427 18.7633 0.853281L32.2051 12.6188C32.9325 13.2546 33.1903 14.2817 32.8547 15.191C32.5191 16.1017 31.6577 16.7055 30.6955 16.7055H29.1759V29.5083C29.1759 31.4375 27.6275 33 25.719 33H19.9574C19.3207 33 18.8051 32.4792 18.8051 31.8361V24.8528C18.8051 24.2097 18.288 23.6889 17.6527 23.6889H15.3481C14.7114 23.6889 14.1958 24.2097 14.1958 24.8528V31.8361C14.1958 32.4792 13.6787 33 13.0435 33H7.28188C5.3719 33 3.82492 31.4375 3.82492 29.5083L3.82522 16.7055ZM2.30559 14.3777H4.97753C5.61276 14.3777 6.12985 14.8986 6.12985 15.5416V29.5083C6.12985 30.1514 6.6455 30.6722 7.28217 30.6722H11.8914V24.8528C11.8914 22.9236 13.4384 21.3611 15.3484 21.3611H17.653C19.5616 21.3611 21.11 22.9236 21.11 24.8528V30.6722H25.7193C26.3545 30.6722 26.8716 30.1514 26.8716 29.5083V15.5416C26.8716 14.8986 27.3872 14.3777 28.0239 14.3777H30.6958L17.2541 2.61219C16.822 2.23248 16.1795 2.23248 15.746 2.61219L2.30559 14.3777Z" fill="#00A3E0"/>
</svg>
