<svg width="22" height="20" viewBox="0 0 22 20" fill="none" xmlns="http://www.w3.org/2000/svg">
<path d="M16.0009 12.2769H16.0109M18.7778 1H4.55556C3.311 1 2.68871 1 2.21336 1.2422C1.79521 1.45526 1.45526 1.79521 1.24221 2.21336C1 2.68871 1 3.31099 1 4.55556V15.2222C1 16.4668 1 17.089 1.24221 17.5645C1.45526 17.9826 1.79521 18.3225 2.21336 18.5356C2.68871 18.7778 3.31099 18.7778 4.55556 18.7778H17.4444C18.689 18.7778 19.3113 18.7778 19.7867 18.5356C20.2048 18.3225 20.5448 17.9826 20.7578 17.5645C21 17.089 21 16.4668 21 15.2222V9.00002C21 7.75547 21 7.13316 20.7578 6.6578C20.5448 6.23966 20.2048 5.8997 19.7867 5.68665C19.3113 5.44445 18.689 5.44445 17.4444 5.44445H5.44444M16.5009 12.2769C16.5009 12.553 16.277 12.7769 16.0009 12.7769C15.7248 12.7769 15.5009 12.553 15.5009 12.2769C15.5009 12.0008 15.7248 11.7769 16.0009 11.7769C16.277 11.7769 16.5009 12.0008 16.5009 12.2769Z" stroke="#00A3E0" stroke-width="2" stroke-linecap="round" stroke-linejoin="round"/>
</svg>
