<svg width="86" height="76" viewBox="0 0 86 76" fill="none" xmlns="http://www.w3.org/2000/svg">
<path d="M37.7066 42.0609C38.0654 45.6483 38.2647 47.4819 35.3549 50.5511C32.3255 53.7399 24.7521 59.5994 17.0192 64.0638C13.7506 65.977 9.32614 68.2491 5.97788 69.4449C3.50654 70.3617 1.43381 70.7204 0.397441 68.9267C-0.280183 67.7708 0.038699 66.6945 0.397441 65.7777C3.10794 58.4833 10.8408 44.8112 15.9031 35.9623C16.4213 35.0455 16.9793 34.1287 17.4975 33.1721C25.3101 19.7391 35.6339 3.27686 37.6668 0.646083C37.9458 0.247481 38.5038 -0.190982 38.9822 0.0880398C39.3808 0.327201 39.3808 0.805524 39.3409 1.16427C39.3409 1.20413 39.2213 1.68245 39.1416 1.88175C35.8332 15.4741 36.192 28.7874 37.7066 42.0609Z" fill="#00A3E0"/>
<path d="M49.1067 46.2462C45.8382 44.7315 44.1242 43.9742 42.9284 39.9084C41.6927 35.7231 40.3773 26.2363 40.3773 17.2678C40.3773 13.5209 40.6165 8.57825 41.2144 5.07055C41.6927 2.43977 42.4102 0.446762 44.4829 0.446762C45.8382 0.446762 46.5955 1.28383 47.2333 2.04117C52.2158 8.02021 60.1081 21.5727 65.29 30.4217C65.8082 31.2986 66.3263 32.2154 66.8844 33.172C74.6173 46.6448 83.7054 63.8246 84.9809 66.8938C85.1802 67.3323 85.2998 68.0099 84.7816 68.3288C84.383 68.5281 83.9844 68.2889 83.7054 68.0896C83.6656 68.0498 83.3068 67.691 83.1872 67.5714C73.0627 57.8854 61.3837 51.5476 49.1067 46.2462Z" fill="#00A3E0"/>
<path d="M39.7794 53.9791C42.7291 51.9064 44.2438 50.8302 48.3494 51.7868C52.5746 52.8232 61.4634 56.4505 69.2362 60.9148C72.4648 62.7883 76.6502 65.4987 79.4005 67.7708C81.3935 69.4848 82.7887 71.0792 81.7523 72.8729C81.0747 74.0288 79.9984 74.3079 79.0019 74.4673C71.3089 75.7827 55.604 75.8624 45.3997 75.9421C44.3634 75.9421 43.2871 75.9421 42.2109 75.9421C26.6654 75.9023 7.25347 75.1848 3.94507 74.7463C3.46674 74.7065 2.82898 74.4673 2.82898 73.8694C2.82898 73.4309 3.22758 73.1519 3.54646 73.0323C3.62618 73.0323 4.10451 72.8729 4.26395 72.833C17.6969 68.9267 29.057 61.991 39.7794 53.9791Z" fill="#00A3E0"/>
</svg>
