<svg width="31" height="25" viewBox="0 0 31 25" fill="none" xmlns="http://www.w3.org/2000/svg">
<path fill-rule="evenodd" clip-rule="evenodd" d="M19.6527 0.402724C20.1897 -0.134241 21.0603 -0.134241 21.5973 0.402724L29.3778 8.18327C30.4172 9.22272 29.681 11 28.2112 11H1.375C0.615615 11 0 10.3844 0 9.625C0 8.86561 0.615615 8.25 1.375 8.25H25.5555L19.6527 2.34728C19.1158 1.8103 19.1158 0.939703 19.6527 0.402724ZM4.69454 16.5H28.875C29.6344 16.5 30.25 15.8844 30.25 15.125C30.25 14.3656 29.6344 13.75 28.875 13.75H2.03891C0.56892 13.75 -0.167262 15.5273 0.872176 16.5667L8.65272 24.3473C9.1897 24.8842 10.0603 24.8842 10.5973 24.3473C11.1342 23.8103 11.1342 22.9397 10.5973 22.4027L4.69454 16.5Z" fill="#00A3E0"/>
</svg>
