<svg width="31" height="32" viewBox="0 0 31 32" fill="none" xmlns="http://www.w3.org/2000/svg">
<path d="M2.28955 14.5001V19.0001C2.28955 24.6569 2.28955 27.4854 4.11016 29.2427C5.93078 31.0001 8.86099 31.0001 14.7215 31.0001H16.2754C22.1358 31.0001 25.0662 31.0001 26.8867 29.2427M28.7074 14.5001V19.0001C28.7074 20.7548 28.7074 22.2372 28.653 23.5001" stroke="#00A3E0" stroke-width="2" stroke-linecap="round"/>
<path d="M11.6131 1.00006H19.383M11.6131 1.00006L10.6003 10.7761C10.3105 13.5731 12.586 16.0001 15.498 16.0001C18.4102 16.0001 20.6855 13.5731 20.3959 10.7761L19.383 1.00006M11.6131 1.00006H8.3772C6.96615 1.00006 6.2606 1.00006 5.6555 1.16019C4.38046 1.49758 3.31379 2.34165 2.72099 3.48232M11.6131 1.00006L10.4872 11.868C10.2442 14.2137 8.19922 16.0001 5.75693 16.0001C2.75703 16.0001 0.507071 13.3509 1.0954 10.5115L1.20136 10.0001M19.383 1.00006H22.6189C24.03 1.00006 24.7355 1.00006 25.3407 1.16019C26.6156 1.49758 27.6824 2.34165 28.2751 3.48232C28.5565 4.02366 28.6948 4.69146 28.9716 6.02706L29.9007 10.5115C30.489 13.3509 28.239 16.0001 25.2392 16.0001C22.7969 16.0001 20.7519 14.2137 20.5089 11.868L19.383 1.00006Z" stroke="#00A3E0" stroke-width="2" stroke-linecap="round"/>
<path d="M11.6133 30.2501V25.7501C11.6133 24.3482 11.6133 23.6472 11.9256 23.1251C12.1302 22.7831 12.4245 22.499 12.7788 22.3016C13.3197 22.0001 14.0459 22.0001 15.4983 22.0001C16.9506 22.0001 17.6768 22.0001 18.2177 22.3016C18.572 22.499 18.8664 22.7831 19.0709 23.1251C19.3832 23.6472 19.3832 24.3482 19.3832 25.7501V30.2501" stroke="#00A3E0" stroke-width="2" stroke-linecap="round"/>
</svg>
