<svg width="164" height="179" viewBox="0 0 164 179" fill="none" xmlns="http://www.w3.org/2000/svg">
<path d="M163.139 1.88182C162.487 0.321512 160.693 -0.414764 159.132 0.237956L127.159 13.6052C126.639 13.8224 126.19 14.179 125.859 14.6352L108.683 38.3684H55.9556C54.4243 24.3305 42.5019 13.3682 28.0631 13.3682C18.3013 13.3682 9.69185 18.3812 4.66238 25.965C4.64036 25.9933 4.61588 26.0192 4.59456 26.0485C4.49981 26.1782 4.42045 26.3139 4.34948 26.4523C1.59981 30.7899 0 35.9253 0 41.4302C0 56.9043 12.5891 69.493 28.0631 69.493C33.3698 69.493 38.1934 68.1708 42.446 65.5679L46.8339 70.6596C47.9383 71.9413 49.8727 72.0843 51.1526 70.9806C52.4343 69.8765 52.5777 67.9432 51.4736 66.6612L43.3774 57.2661C48.4295 54.7308 53.3702 53.7312 58.0962 54.3056C63.3911 54.9489 66.863 57.3493 70.8828 60.1287C73.8335 62.169 76.8839 64.2786 80.919 65.9189C85.0612 67.602 89.4841 68.4431 94.1629 68.4431C96.5749 68.4431 99.0553 68.2176 101.599 67.7705L77.0143 96.301L59.7408 76.2558C58.6364 74.9745 56.7023 74.8315 55.4221 75.9349C54.1404 77.0389 53.9971 78.973 55.1011 80.2543L73.5192 101.628C73.65 101.779 73.7954 101.914 73.9499 102.035V158.367L44.157 173.196C42.8848 173.829 42.2149 175.255 42.5404 176.638C42.8659 178.022 44.1003 179 45.5215 179H108.507C109.929 179 111.163 178.022 111.488 176.638C111.814 175.255 111.144 173.829 109.872 173.196L80.0789 158.368V102.035C80.2338 101.914 80.3789 101.779 80.5096 101.628L130.66 43.4297C131.441 42.5224 131.622 41.2432 131.124 40.1545C130.625 39.0658 129.537 38.368 128.34 38.368H116.244L130.316 18.9235L161.494 5.88798C163.056 5.23596 163.791 3.44212 163.139 1.88182ZM95.4809 172.875H58.5479L77.0132 163.684L95.4809 172.875ZM49.7829 38.3684H31.2099L40.5455 23.4048C45.4582 26.8177 48.9145 32.1821 49.7829 38.3684ZM28.0638 19.493C30.5065 19.493 32.8548 19.9006 35.0511 20.6404L24.8341 37.0168L11.3815 27.2075C15.4083 22.4919 21.3908 19.493 28.0638 19.493ZM6.12549 41.4306C6.12549 38.2062 6.83066 35.145 8.0854 32.3841L21.5744 42.22L12.4115 56.7816C8.52731 52.8226 6.12549 47.403 6.12549 41.4306ZM28.0638 63.3685C24.1499 63.3685 20.4752 62.3334 17.2906 60.5297L26.0752 46.5692L38.3783 60.8468C35.3021 62.52 31.8469 63.3685 28.0638 63.3685ZM121.658 44.4932L108.716 59.5131C99.1337 62.9731 90.5591 63.2249 83.2264 60.2448C79.8153 58.8582 77.0454 56.9434 74.3674 55.0912C70.0721 52.1213 65.6313 49.051 58.8356 48.2256C52.4458 47.4495 45.8732 48.8933 39.2743 52.5041L32.3713 44.4932H110.242C110.243 44.4932 110.244 44.4932 110.245 44.4932C110.246 44.4932 110.247 44.4932 110.248 44.4932H121.658Z" fill="#3579FF"/>
</svg>
