<svg width="27" height="27" viewBox="0 0 27 27" fill="none" xmlns="http://www.w3.org/2000/svg">
<path d="M10.1251 23.625H16.8751M20.2501 9.675C20.2501 8.00414 19.539 6.40171 18.273 5.22023C17.0072 4.03875 15.2903 3.375 13.5001 3.375C11.7099 3.375 9.993 4.03875 8.72712 5.22023C7.46126 6.40171 6.75009 8.00414 6.75009 9.675C6.75009 12.697 5.98938 14.8314 5.09349 16.2974C4.22577 17.7172 3.79193 18.4272 3.80805 18.6116C3.82617 18.8187 3.86706 18.8916 4.03438 19.0151C4.18332 19.125 4.89118 19.125 6.30691 19.125H20.6933C22.109 19.125 22.8169 19.125 22.9658 19.0151C23.1331 18.8916 23.1741 18.8187 23.1922 18.6116C23.2083 18.4272 22.7744 17.7172 21.9068 16.2974C21.0108 14.8314 20.2501 12.697 20.2501 9.675Z" stroke="#00A3E0" stroke-width="2" stroke-linecap="round" stroke-linejoin="round"/>
</svg>
