<svg width="246" height="167" viewBox="0 0 246 167" fill="none" xmlns="http://www.w3.org/2000/svg">
<path d="M242.075 27.0218H230.298V25.7133C230.298 23.5448 228.54 21.7878 226.372 21.7878H178.376C176.208 21.7878 174.45 23.5448 174.45 25.7133V140.339C174.45 142.507 176.208 144.264 178.376 144.264H226.372C228.54 144.264 230.298 142.507 230.298 140.339V34.8729H238.149V135.105C238.149 137.273 239.907 139.03 242.075 139.03C244.242 139.03 246 137.273 246 135.105V30.9473C246 28.7789 244.242 27.0218 242.075 27.0218ZM222.447 136.413H182.301V29.6388H222.447V136.413Z" fill="#0DAB5A"/>
<path d="M83.026 0C37.2454 0 0 37.2454 0 83.0261C0 128.807 37.2454 166.052 83.026 166.052C128.807 166.052 166.052 128.807 166.052 83.0261C166.052 37.2454 128.807 0 83.026 0ZM83.026 158.201C41.5745 158.201 7.85106 124.478 7.85106 83.0261C7.85106 41.5745 41.5745 7.85106 83.026 7.85106C124.478 7.85106 158.201 41.5745 158.201 83.0261C158.201 124.478 124.478 158.201 83.026 158.201Z" fill="#0DAB5A"/>
<path d="M83.0261 31.4262C69.2229 31.4268 56.2598 36.788 46.5239 46.5238C37.8401 55.2082 32.5344 66.7414 31.5844 78.9995C30.6449 91.1189 33.9936 103.203 41.014 113.024C42.2749 114.788 44.7271 115.195 46.4904 113.935C48.2543 112.674 48.662 110.223 47.4012 108.459C34.9117 90.986 36.8776 67.2732 52.0757 52.0756C60.3287 43.8226 71.3202 39.2773 83.0261 39.2773C94.7321 39.2773 105.724 43.8226 113.977 52.0756C122.23 60.3281 126.774 71.3201 126.774 83.026C126.774 94.732 122.229 105.723 113.977 113.977C98.778 129.175 75.0657 131.14 57.5929 118.651C55.8285 117.39 53.3769 117.798 52.1165 119.562C50.8556 121.326 51.2639 123.777 53.0272 125.038C61.7644 131.284 72.2916 134.623 83.0418 134.623C84.376 134.623 85.7138 134.571 87.0522 134.468C99.3103 133.518 110.844 128.212 119.528 119.528C129.264 109.792 134.625 96.8293 134.625 83.026C134.625 69.2228 129.264 56.2592 119.528 46.5238C109.793 36.788 96.8294 31.4262 83.0261 31.4262Z" fill="#0DAB5A"/>
</svg>
