<svg width="170" height="170" viewBox="0 0 170 170" fill="none" xmlns="http://www.w3.org/2000/svg">
<path d="M90.667 104.833C90.667 100.147 86.8533 96.3329 82.167 96.3329C77.4807 96.3329 73.667 100.147 73.667 104.833C73.667 108.522 76.0413 111.636 79.3338 112.812V119C79.3338 134.623 92.0443 147.333 107.667 147.333C123.29 147.333 136 134.623 136 119V112.812C139.293 111.639 141.667 108.522 141.667 104.833C141.667 100.147 137.853 96.3329 133.167 96.3329C128.481 96.3329 124.667 100.147 124.667 104.833C124.667 108.522 127.041 111.636 130.334 112.812V119C130.334 131.498 120.165 141.666 107.667 141.666C95.169 141.666 85.0002 131.498 85.0002 119V112.812C88.2926 111.639 90.667 108.522 90.667 104.833ZM133.167 102C134.728 102 136 103.272 136 104.833C136 106.394 134.731 107.663 133.17 107.666H133.167H133.164C131.603 107.663 130.333 106.394 130.333 104.833C130.333 103.272 131.606 102 133.167 102ZM82.1696 107.666H82.1667H82.1637C80.6025 107.663 79.3331 106.394 79.3331 104.833C79.3331 103.272 80.6051 102 82.1663 102C83.7275 102 84.9995 103.272 84.9995 104.833C84.9995 106.394 83.7309 107.663 82.1696 107.666Z" fill="#9841F0"/>
<path d="M31.1668 67.9997C35.8531 67.9997 39.6668 64.186 39.6668 59.4997C39.6668 55.8108 37.2925 52.694 34.0001 51.521V39.6664H82.1668C83.7307 39.6664 85.0001 38.3971 85.0001 36.8332C85.0001 35.2664 83.7307 34 82.1668 34H34.0001C34.0001 18.3769 46.7105 5.66678 62.3333 5.66678C77.956 5.66678 90.6665 18.3773 90.6665 34V51.5213C87.3744 52.694 85.0001 55.8108 85.0001 59.4997C85.0001 64.186 88.8138 67.9997 93.5001 67.9997C98.1864 67.9997 102 64.186 102 59.4997C102 55.8108 99.6257 52.694 96.3333 51.521V39.6664H119V70.8332C119 72.3971 120.269 73.6664 121.833 73.6664C123.397 73.6664 124.667 72.3971 124.667 70.8332V36.9494C124.667 36.9295 124.655 36.9126 124.655 36.89C124.655 36.8701 124.667 36.8531 124.667 36.8332C124.667 35.2664 123.397 34 121.833 34H96.3333C96.3333 15.2519 81.0814 0 62.3333 0C43.5851 0 28.3333 15.2519 28.3333 34V51.5213C25.0409 52.6944 22.6665 55.8108 22.6665 59.5C22.6668 64.186 26.4805 67.9997 31.1668 67.9997ZM93.5001 56.6664C95.0613 56.6664 96.3333 57.9385 96.3333 59.4997C96.3333 61.0609 95.0613 62.3329 93.5001 62.3329C91.9389 62.3329 90.6668 61.0609 90.6668 59.4997C90.6668 57.9385 91.9389 56.6664 93.5001 56.6664ZM31.1668 56.6664C32.728 56.6664 34.0001 57.9385 34.0001 59.4997C34.0001 61.0609 32.728 62.3329 31.1668 62.3329C29.6056 62.3329 28.3336 61.0609 28.3336 59.4997C28.3333 57.9385 29.6056 56.6664 31.1668 56.6664Z" fill="#9841F0"/>
<path d="M39.6668 164.333H14.1668C9.48049 164.333 5.66678 160.519 5.66678 155.833V136H36.8336C38.3974 136 39.6668 134.73 39.6668 133.166C39.6668 131.6 38.3974 130.333 36.8336 130.333H5.66678V39.6664H19.7173C21.2812 39.6664 22.5506 38.3971 22.5506 36.8332C22.5506 35.2664 21.2812 34 19.7173 34H2.83322C1.26936 34 0 35.2664 0 36.8332V155.833C0 163.642 6.35508 170 14.1668 170H39.6668C41.2306 170 42.5 168.73 42.5 167.166C42.5 165.6 41.2306 164.333 39.6668 164.333Z" fill="#9841F0"/>
<path d="M169.102 80.234C168.586 79.6842 167.864 79.3329 167.051 79.3329H59.4999C57.9361 79.3329 56.6667 80.5993 56.6667 82.1661C56.6667 83.73 57.9361 84.9993 59.4999 84.9993H164.333V155.833C164.333 160.519 160.519 164.333 155.833 164.333H59.4999C54.8137 164.333 50.9999 160.519 50.9999 155.833V82.1665C50.9999 80.6026 49.7306 79.3332 48.1667 79.3332C46.6029 79.3332 45.3335 80.6026 45.3335 82.1665V155.833C45.3335 163.642 51.6886 170 59.5003 170H155.834C163.645 170 170 163.642 170 155.833V82.2827C170 81.4692 169.649 80.7497 169.102 80.234Z" fill="#9841F0"/>
</svg>
